<?xml version="1.0" encoding="iso-8859-1"?>
<!-- Uploaded to: SVG Repo, www.svgrepo.com, Generator: SVG Repo Mixer Tools -->
<svg height="800px" width="800px" version="1.1" id="Layer_1" xmlns="http://www.w3.org/2000/svg" xmlns:xlink="http://www.w3.org/1999/xlink" 
	 viewBox="0 0 512 512" xml:space="preserve">
<g>
	<path style="fill:#DFDBCC;" d="M125.99,145.916c-3.288,0-6.393-1.987-7.656-5.235c-1.646-4.227,0.447-8.988,4.674-10.634
		L441.56,5.993c4.227-1.649,8.988,0.445,10.634,4.673c1.646,4.227-0.446,8.988-4.673,10.634L128.969,145.353
		C127.988,145.734,126.981,145.916,125.99,145.916z"/>
	<path style="fill:#DFDBCC;" d="M379.73,378.386c-1.008,0-2.032-0.187-3.027-0.58c-4.216-1.672-6.279-6.448-4.605-10.664
		L493.503,61.136c1.672-4.218,6.446-6.276,10.664-4.606c4.216,1.672,6.279,6.448,4.605,10.664L387.368,373.199
		C386.09,376.421,383,378.386,379.73,378.386z"/>
</g>
<g>
	<path style="fill:#D8CFB2;" d="M220.604,94.767c-1.682-0.168-3.359-0.318-4.983-0.444c-0.264-0.021-0.503-0.036-0.747-0.054
		l-91.867,35.775c-4.226,1.646-6.32,6.407-4.674,10.634c1.264,3.248,4.369,5.235,7.656,5.235c0.991,0,1.999-0.181,2.979-0.563
		l118.56-46.171c-8.768-2.003-17.671-3.478-26.691-4.389C220.76,94.784,220.681,94.775,220.604,94.767z"/>
	<path style="fill:#D8CFB2;" d="M417.479,294.156l-0.048-0.531c-0.899-9.868-2.451-19.569-4.626-29.087l-40.707,102.604
		c-1.672,4.216,0.389,8.991,4.605,10.664c0.994,0.393,2.02,0.58,3.027,0.58c3.268,0,6.36-1.965,7.638-5.187l30.326-76.437
		C417.628,295.895,417.557,295.022,417.479,294.156z"/>
</g>
<g>
	<circle style="fill:#36A1CB;" cx="198.316" cy="313.682" r="14.924"/>
	<path style="fill:#36A1CB;" d="M348.387,288.278h-13.916c-1.313-7.096-3.174-14.003-5.525-20.672l12.042-6.953
		c3.948-2.283,5.305-7.334,3.023-11.287l-17.146-29.699c-2.28-3.949-7.334-5.303-11.286-3.024l-12.069,6.968
		c-4.646-5.417-9.702-10.477-15.123-15.121l6.966-12.069c2.282-3.951,0.929-9.005-3.023-11.285l-29.698-17.146
		c-3.953-2.282-9.003-0.928-11.286,3.024l-6.954,12.039c-6.67-2.354-13.575-4.213-20.672-5.526V163.61
		c0-4.564-3.698-8.262-8.261-8.262h-34.293c-4.563,0-8.261,3.698-8.261,8.262v13.916c-7.097,1.313-14,3.173-20.674,5.526
		l-6.952-12.039c-2.28-3.95-7.334-5.306-11.286-3.024l-29.698,17.147c-3.95,2.28-5.305,7.332-3.025,11.285l6.969,12.069
		c-5.42,4.644-10.477,9.703-15.121,15.121l-12.07-6.968c-3.95-2.279-9.003-0.927-11.286,3.024l-17.144,29.699
		c-2.282,3.951-0.929,9.006,3.021,11.287l12.043,6.953c-2.354,6.669-4.214,13.576-5.527,20.672H48.237
		c-4.563,0-8.261,3.698-8.261,8.262v34.292c0,4.565,3.698,8.262,8.261,8.262h13.916c1.313,7.097,3.174,14.003,5.527,20.675
		l-12.043,6.952c-3.948,2.28-5.303,7.334-3.021,11.285l17.144,29.699c2.282,3.951,7.334,5.305,11.286,3.025l12.07-6.97
		c4.644,5.419,9.7,10.478,15.119,15.123l-6.966,12.071c-2.278,3.949-0.927,9.002,3.025,11.284l29.698,17.146
		c3.95,2.281,9.006,0.929,11.286-3.024l6.951-12.044c6.674,2.351,13.576,4.212,20.674,5.527v13.916c0,4.56,3.698,8.261,8.261,8.261
		h34.295c4.563,0,8.261-3.701,8.261-8.261v-13.916c7.097-1.315,14.002-3.176,20.674-5.527l6.952,12.039
		c2.282,3.951,7.332,5.305,11.286,3.024l29.698-17.146c3.95-2.281,5.305-7.333,3.023-11.284l-6.964-12.071
		c5.418-4.645,10.475-9.703,15.121-15.123l12.069,6.97c3.95,2.28,9.006,0.928,11.286-3.025l17.146-29.699
		c2.282-3.949,0.927-9.005-3.023-11.285l-12.04-6.952c2.351-6.672,4.212-13.577,5.525-20.675h13.916
		c4.563,0,8.261-3.697,8.261-8.262v-34.292C356.648,291.977,352.95,288.278,348.387,288.278z M198.503,379.945
		c-36.594,0.104-66.343-29.477-66.448-66.069c-0.103-36.594,29.476-66.343,66.07-66.448c36.592-0.104,66.343,29.477,66.447,66.07
		C264.677,350.091,235.095,379.841,198.503,379.945z"/>
</g>
<path style="fill:#8BD8F7;" d="M198.313,211.835c-56.252,0-101.852,45.601-101.852,101.852s45.6,101.852,101.852,101.852
	c26.87,0,51.314-10.406,69.514-27.409l17.709-21.822c9.285-15.358,14.628-33.366,14.628-52.621
	C300.165,257.436,254.563,211.835,198.313,211.835z M198.503,379.945c-36.594,0.104-66.343-29.477-66.448-66.069
	c-0.103-36.594,29.476-66.343,66.07-66.448c36.592-0.104,66.343,29.477,66.447,66.07
	C264.677,350.091,235.095,379.841,198.503,379.945z"/>
<path style="fill:#FFB92E;" d="M464.36,0.001c-26.312,0-47.64,21.331-47.64,47.64c0,26.312,21.329,47.64,47.64,47.64
	c26.31,0,47.64-21.329,47.64-47.64C512,21.332,490.669,0.001,464.36,0.001z M463.103,62.566c-8.241,0-14.924-6.683-14.924-14.924
	s6.683-14.924,14.924-14.924s14.924,6.683,14.924,14.924S471.346,62.566,463.103,62.566z"/>
<path style="fill:#EF9A1D;" d="M438.601,47.642c0-22.543,15.664-41.417,36.7-46.363c-3.514-0.826-7.175-1.277-10.941-1.277
	c-26.312,0-47.64,21.331-47.64,47.64c0,26.312,21.329,47.64,47.64,47.64c3.766,0,7.426-0.451,10.941-1.277
	C454.265,89.059,438.601,70.187,438.601,47.642z"/>
<path style="fill:#FFB92E;" d="M312.624,151.862c-3.702-2.621-8.828-1.744-11.449,1.959c-2.621,3.703-1.744,8.828,1.959,11.45
	c48.15,34.079,76.896,89.592,76.896,148.498c0,100.245-81.555,181.801-181.8,181.801S16.428,414.015,16.428,313.77
	c0-100.244,81.557-181.8,181.802-181.8c28.988,0,56.689,6.617,82.336,19.667c4.042,2.058,8.988,0.447,11.045-3.595
	c2.058-4.042,0.448-8.988-3.594-11.046c-27.976-14.235-58.184-21.454-89.785-21.454C88.926,115.542,0,204.466,0,313.77
	c0,109.305,88.926,198.229,198.23,198.229s198.228-88.924,198.228-198.229C396.458,249.543,365.12,189.016,312.624,151.862z"/>
<path style="fill:#F28838;" d="M463.103,70.779c-12.757,0-23.138-10.38-23.138-23.138s10.381-23.138,23.138-23.138
	c12.759,0,23.138,10.38,23.138,23.138S475.863,70.779,463.103,70.779z M463.103,40.931c-3.699,0-6.71,3.011-6.71,6.71
	s3.011,6.71,6.71,6.71c3.701,0,6.71-3.011,6.71-6.71C469.814,43.942,466.804,40.931,463.103,40.931z"/>
<path style="opacity:0.15;fill:#F5F5F5;enable-background:new    ;" d="M348.387,288.278h-13.916
	c-1.313-7.096-3.174-14.003-5.525-20.672l12.042-6.953c3.948-2.283,5.305-7.334,3.023-11.287l-17.146-29.699
	c-2.28-3.949-7.334-5.303-11.286-3.024l-12.069,6.968c-4.646-5.417-9.702-10.477-15.123-15.121l6.966-12.069
	c2.282-3.951,0.929-9.005-3.023-11.285l-29.698-17.146c-3.953-2.282-9.003-0.928-11.286,3.024l-6.954,12.039
	c-6.67-2.354-13.575-4.213-20.672-5.526V163.61c0-4.564-3.698-8.262-8.261-8.262h-34.293c-4.563,0-8.261,3.698-8.261,8.262v13.916
	c-6.158,1.14-12.161,2.715-18.004,4.642c-10.068,21.358-15.707,45.216-15.707,70.394c0,9.247,0.772,18.313,2.231,27.146
	c11.539-19.28,32.596-32.214,56.701-32.283c36.592-0.104,66.343,29.477,66.447,66.07c0.104,36.389-29.148,65.996-65.457,66.429
	c25.171,20.851,56.626,34.373,91.101,37.325c4.725-4.197,9.179-8.695,13.293-13.494l12.069,6.97c3.95,2.28,9.006,0.928,11.286-3.025
	l17.146-29.699c2.282-3.949,0.927-9.005-3.023-11.285l-12.04-6.952c2.351-6.672,4.212-13.577,5.525-20.675h13.916
	c4.563,0,8.261-3.697,8.261-8.262v-34.292C356.648,291.977,352.95,288.278,348.387,288.278z"/>
</svg>